<?xml version="1.0" encoding="utf-8"?>
<!-- Generator: Adobe Illustrator 22.0.1, SVG Export Plug-In . SVG Version: 6.00 Build 0)  -->
<svg version="1.1" xmlns="http://www.w3.org/2000/svg" xmlns:xlink="http://www.w3.org/1999/xlink" x="0px" y="0px" width="573.5px"
	 height="487.4px" viewBox="0 0 573.5 487.4" style="enable-background:new 0 0 573.5 487.4;" xml:space="preserve">
<style type="text/css">
	.st0{fill:none;stroke:#000000;stroke-width:0.2835;stroke-miterlimit:10;}
	.st1{display:none;}
	.st2{display:inline;}
	.st3{fill:none;stroke:#FF0000;stroke-width:0.2835;stroke-miterlimit:10;}
	.st4{display:inline;fill:none;stroke:#FF0000;stroke-width:0.2835;stroke-miterlimit:10;}
	.st5{display:inline;fill:none;stroke:#ED2024;stroke-width:0.2835;stroke-miterlimit:10;}
	.st6{display:inline;fill:none;stroke:#000000;stroke-width:0.2835;stroke-miterlimit:10;}
	.st7{fill:none;stroke:#ED2024;stroke-width:0.2835;stroke-miterlimit:10;}
	.st8{fill:#010101;stroke:#ED2024;stroke-miterlimit:10;}
	.st9{fill:none;stroke:#ED2024;stroke-miterlimit:10;}
	.st10{stroke:#ED2024;stroke-miterlimit:10;}
</style>
<g id="Layer_1">
	<title>SVG Picture created as redox_rev2-brd.svg date 2018/05/19 09:41:39</title>
	<desc>Picture generated by PCBNEW</desc>
	<g transform="translate(0 0) scale(1 1)">
	</g>
	<g>
		<path class="st0" d="M448.7634,451.2711c-8.0625,0-13.7539-3.1631-14.6318-3.6807l-114.0703-65.7363
			c-21.1289-7.7295-43.2329-11.4873-67.5654-11.4873c-4.1582,0-8.4912,0.1025-12.5298,0.2949
			c-2.8877,0.1025-6.2568,0.2051-9.8701,0.2051l-0.9819,0.002c-9.498,0.0938-20.2598,0.2012-26.5576,2.9844
			c-2.4746,1.1729-4.7217,3.2949-6.0674,4.5664c-3.5571,3.4531-8.4976,8.248-17.8931,8.248h-108
			c-15.6431,0-28.3696-12.7266-28.3696-28.3691c0-2.7402,0.0864-5.4697,0.1772-8.3604l0.0259-0.8174
			c0.1929-5.8008,0.3921-11.7871-0.1748-17.458c-0.0396-0.3965-0.1523-1.5234-0.251-1.9902
			c-0.2524-0.3018-0.8667-0.916-1.417-1.4658l-0.7988-0.7988c-5.8491-5.8496-11.2612-12.6855-11.2612-23.0098v-225.5
			c0-7.5112,2.9692-14.6167,8.3599-20.0083l14.4004-14.4004c5.3921-5.3911,12.4976-8.3604,20.0088-8.3604h363.2002
			c7.5117,0,14.6172,2.9692,20.0088,8.3604l14.4004,14.3999c5.3906,5.3916,8.3594,12.4976,8.3594,20.0088v135.1001
			c0,37.6792,6.6016,41.1753,34.3848,55.8902c0.2031,0.1074,0.3994,0.2266,0.5869,0.3584
			c5.6309,2.9756,11.6943,6.2148,18.4951,10.1426c6.6689,3.9521,11.3545,10.0723,13.2471,17.2666
			c1.998,7.3691,0.9678,15.0352-2.9121,21.5449l-67.958,117.9287c-4.8574,8.4668-13.9668,13.8877-23.7686,14.1367L448.7634,451.2711
			z"/>
		<circle class="st0" cx="53.6205" cy="58.2229" r="2.4803"/>
		<circle class="st0" cx="39.8652" cy="298.9732" r="2.4803"/>
		<circle class="st0" cx="172.969" cy="375.3061" r="2.4803"/>
		<circle class="st0" cx="451.4404" cy="439.6886" r="2.4803"/>
		<circle class="st0" cx="533.5001" cy="302.9847" r="2.4803"/>
		<circle class="st0" cx="231.7493" cy="47.4675" r="2.4803"/>
		<circle class="st0" cx="288.4423" cy="47.4675" r="2.4803"/>
		<circle class="st0" cx="388.3207" cy="47.4675" r="2.4803"/>
		<circle class="st0" cx="452.3277" cy="58.3644" r="2.4803"/>
	</g>
</g>
<g id="PCB" class="st1">
	<g class="st2">
		<g>
			<circle class="st3" cx="123.3" cy="299.1" r="4.8"/>
			<circle class="st3" cx="436.5" cy="342.6" r="4.8"/>
			<circle class="st3" cx="387.9" cy="81.3" r="4.8"/>
			<circle class="st3" cx="74.7" cy="86.7" r="4.8"/>
		</g>
		<path class="st3" d="M70.7,325.3v40.3h108l12.2-12.2h41.8l7.2-7.2h28.8l62.3,16.6l117.4,67.7h0.4l68-118.1l-67.7-38.9V115.1V86.3
			l-14.4-14.4H71.4L57,86.3v9.4v216L70.7,325.3z"/>
	</g>
	<rect x="245.9268" y="43.5308" class="st4" width="28.3465" height="79.1692"/>
	<rect x="402.4981" y="43.5308" class="st4" width="22.6772" height="79.1692"/>
	<g class="st2">
		<g>
			<line class="st3" x1="240.3" y1="122.7" x2="279.9" y2="83.1"/>
			<line class="st3" x1="240.3" y1="83.1" x2="279.9" y2="122.7"/>
		</g>
	</g>
	<line class="st4" x1="61.6338" y1="73.6338" x2="53.6162" y2="65.6162"/>
	<rect x="39.8694" y="292.2018" class="st4" width="11.3386" height="14.1732"/>
	<rect x="158.8" y="371.3693" class="st4" width="14.1732" height="11.3386"/>
	<polyline class="st5" points="449.6592,435.8903 451.4446,447.0904 453.23,458.2904 	"/>
	<polyline class="st5" points="522.2495,311.7431 527.8769,311.0648 533.5043,310.3865 539.1317,309.7082 544.759,309.03 	"/>
	<rect x="231.7535" y="43.5308" class="st4" width="14.1732" height="11.3386"/>
	<circle class="st5" cx="231.7535" cy="54.8693" r="4.6772"/>
	<rect x="274.2732" y="43.5308" class="st4" width="14.1732" height="11.3386"/>
	<circle class="st5" cx="288.4464" cy="54.8693" r="4.6772"/>
	<rect x="388.3249" y="43.5308" class="st4" width="14.1732" height="11.3386"/>
	<circle class="st5" cx="388.3249" cy="54.8693" r="4.6772"/>
	<circle class="st5" cx="53.6247" cy="65.6247" r="4.6772"/>
	<line class="st6" x1="451.074" y1="66.8446" x2="451.0745" y2="66.8449"/>
	<line class="st4" x1="444.3228" y1="73.7752" x2="452.3404" y2="65.7577"/>
	<circle class="st5" cx="452.3318" cy="65.7662" r="4.6772"/>
	<circle class="st5" cx="39.8694" cy="306.375" r="4.6772"/>
	<circle class="st5" cx="172.9732" cy="382.7079" r="4.6772"/>
	<circle class="st5" cx="451.4446" cy="447.0904" r="4.6772"/>
	<circle class="st5" cx="533.5043" cy="310.3865" r="4.6772"/>
	<path class="st5" d="M444.3228,73.7752"/>
	<path class="st5" d="M448.7012,435.9951c-1.7139-0.0137-3.0391-0.5703-3.334-0.7041l-113.9785-65.6836
		c-1.1279-0.6494-2.3096-1.2012-3.5322-1.6484c-23.6689-8.6582-48.3179-12.8672-75.3564-12.8672
		c-4.4531,0-9.1089,0.1084-13.4736,0.3135c-2.626,0.0928-5.7266,0.1865-8.9263,0.1865c0,0-1.1465,0.002-1.2056,0.0029
		c-11.6846,0.1152-24.9277,0.2461-35.5005,4.918c-0.1831,0.0811-0.3647,0.1641-0.5459,0.25
		c-5.7251,2.7139-9.9155,6.6729-11.9292,8.5752c-0.0742,0.0703-0.1479,0.1406-0.2212,0.2119
		c-0.646,0.627-1.4941,1.4512-1.9907,1.8408c-0.0322,0.001-108.1069,0.002-108.1069,0.002c-3.1387,0-5.6924-2.5537-5.6924-5.6924
		c0-2.3613,0.0796-4.8955,0.1636-7.5771l0.0283-0.8828c0.2061-6.2012,0.4409-13.2617-0.2759-20.4316
		c-0.1641-1.6426-0.334-3.0273-0.6284-4.4209c-0.7671-3.6318-2.4136-7.0186-4.7949-9.8652
		c-0.8408-1.0049-1.6841-1.8604-2.7832-2.958l-0.79-0.79c-4.6191-4.6201-4.6191-5.9258-4.6191-6.9746v-225.5
		c0-1.4961,0.5781-2.8335,1.7192-3.9741l8.6991-8.6994l5.6999-5.7001c1.1401-1.1396,2.4775-1.7183,3.9736-1.7183H434.5
		c1.4961,0,2.834,0.5786,3.9746,1.7192l14.3994,14.3989c1.1387,1.1392,1.7178,2.4766,1.7178,3.9736v135.1001
		c0,46.8433,11.8926,57.5767,45.8291,75.6021c0.4004,0.2441,0.8086,0.4766,1.2236,0.6963
		c5.0947,2.6924,11.0713,5.877,17.6094,9.6494c1.4863,0.9023,2.4277,2.0723,2.7979,3.4795c0.0146,0.0547,0.0283,0.1094,0.0439,0.165
		c0.3896,1.4375,0.2197,2.7842-0.5049,4c-0.0566,0.0957-68.127,118.2168-68.127,118.2168c-0.9199,1.6025-2.7412,2.6963-4.582,2.7852
		L448.7012,435.9951z"/>
	<path class="st5" d="M522.2495,311.7431"/>
	<path class="st5" d="M522.2495,311.7431"/>
	<path class="st5" d="M522.2495,311.7431"/>
	<g class="st2">
		<path class="st7" d="M132.3,102.9h39.6"/>
		<path class="st7" d="M171.9,102.9v39.6"/>
		<path class="st7" d="M171.9,142.5h-39.6"/>
		<path class="st7" d="M132.3,142.5v-39.6"/>
		<path class="st7" d="M186.3,90.3h39.6"/>
		<path class="st7" d="M225.9,90.3v39.6"/>
		<path class="st7" d="M225.9,129.9h-39.6"/>
		<path class="st7" d="M186.3,129.9V90.3"/>
		<path class="st7" d="M240.3,83.1h39.6"/>
		<path class="st7" d="M279.9,83.1v39.6"/>
		<path class="st7" d="M279.9,122.7h-39.6"/>
		<path class="st7" d="M240.3,122.7V83.1"/>
		<path class="st7" d="M294.3,90.3h39.6"/>
		<path class="st7" d="M333.9,90.3v39.6"/>
		<path class="st7" d="M333.9,129.9h-39.6"/>
		<path class="st7" d="M294.3,129.9V90.3"/>
		<path class="st7" d="M348.3,95.7h39.6"/>
		<path class="st7" d="M387.9,95.7v39.6"/>
		<path class="st7" d="M387.9,135.3h-39.6"/>
		<path class="st7" d="M348.3,135.3V95.7"/>
		<path class="st7" d="M402.3,122.7h39.6"/>
		<path class="st7" d="M441.9,122.7v39.6"/>
		<path class="st7" d="M441.9,162.3h-39.6"/>
		<path class="st7" d="M402.3,162.3v-39.6"/>
		<path class="st7" d="M132.3,156.9h39.6"/>
		<path class="st7" d="M171.9,156.9v39.6"/>
		<path class="st7" d="M171.9,196.5h-39.6"/>
		<path class="st7" d="M132.3,196.5v-39.6"/>
		<path class="st7" d="M186.3,144.3h39.6"/>
		<path class="st7" d="M225.9,144.3v39.6"/>
		<path class="st7" d="M225.9,183.9h-39.6"/>
		<path class="st7" d="M186.3,183.9v-39.6"/>
		<path class="st7" d="M240.3,137.1h39.6"/>
		<path class="st7" d="M279.9,137.1v39.6"/>
		<path class="st7" d="M279.9,176.7h-39.6"/>
		<path class="st7" d="M240.3,176.7v-39.6"/>
		<path class="st7" d="M294.3,144.3h39.6"/>
		<path class="st7" d="M333.9,144.3v39.6"/>
		<path class="st7" d="M333.9,183.9h-39.6"/>
		<path class="st7" d="M294.3,183.9v-39.6"/>
		<path class="st7" d="M348.3,149.7h39.6"/>
		<path class="st7" d="M387.9,149.7v39.6"/>
		<path class="st7" d="M387.9,189.3h-39.6"/>
		<path class="st7" d="M348.3,189.3v-39.6"/>
		<path class="st7" d="M132.3,210.9h39.6"/>
		<path class="st7" d="M171.9,210.9v39.6"/>
		<path class="st7" d="M171.9,250.5h-39.6"/>
		<path class="st7" d="M132.3,250.5v-39.6"/>
		<path class="st7" d="M186.3,198.3h39.6"/>
		<path class="st7" d="M225.9,198.3v39.6"/>
		<path class="st7" d="M225.9,237.9h-39.6"/>
		<path class="st7" d="M186.3,237.9v-39.6"/>
		<path class="st7" d="M240.3,191.1h39.6"/>
		<path class="st7" d="M279.9,191.1v39.6"/>
		<path class="st7" d="M279.9,230.7h-39.6"/>
		<path class="st7" d="M240.3,230.7v-39.6"/>
		<path class="st7" d="M294.3,198.3h39.6"/>
		<path class="st7" d="M333.9,198.3v39.6"/>
		<path class="st7" d="M333.9,237.9h-39.6"/>
		<path class="st7" d="M294.3,237.9v-39.6"/>
		<path class="st7" d="M348.3,203.7h39.6"/>
		<path class="st7" d="M387.9,203.7v39.6"/>
		<path class="st7" d="M387.9,243.3h-39.6"/>
		<path class="st7" d="M348.3,243.3v-39.6"/>
		<path class="st7" d="M425.6,268.4l34.3,19.8"/>
		<path class="st7" d="M459.9,288.2l-19.8,34.3"/>
		<path class="st7" d="M440.1,322.5l-34.3-19.8"/>
		<path class="st7" d="M405.8,302.7l19.8-34.3"/>
		<path class="st7" d="M132.3,264.9h39.6"/>
		<path class="st7" d="M171.9,264.9v39.6"/>
		<path class="st7" d="M171.9,304.5h-39.6"/>
		<path class="st7" d="M132.3,304.5v-39.6"/>
		<path class="st7" d="M186.3,252.3h39.6"/>
		<path class="st7" d="M225.9,252.3v39.6"/>
		<path class="st7" d="M225.9,291.9h-39.6"/>
		<path class="st7" d="M186.3,291.9v-39.6"/>
		<path class="st7" d="M240.3,245.1h39.6"/>
		<path class="st7" d="M279.9,245.1v39.6"/>
		<path class="st7" d="M279.9,284.7h-39.6"/>
		<path class="st7" d="M240.3,284.7v-39.6"/>
		<path class="st7" d="M294.3,252.3h39.6"/>
		<path class="st7" d="M333.9,252.3v39.6"/>
		<path class="st7" d="M333.9,291.9h-39.6"/>
		<path class="st7" d="M294.3,291.9v-39.6"/>
		<path class="st7" d="M348.3,257.7h39.6"/>
		<path class="st7" d="M387.9,257.7v39.6"/>
		<path class="st7" d="M387.9,297.3h-39.6"/>
		<path class="st7" d="M348.3,297.3v-39.6"/>
		<path class="st7" d="M78.3,318.9h39.6"/>
		<path class="st7" d="M117.9,318.9v39.6"/>
		<path class="st7" d="M117.9,358.5H78.3"/>
		<path class="st7" d="M78.3,358.5v-39.6"/>
		<path class="st7" d="M132.3,318.9h39.6"/>
		<path class="st7" d="M171.9,318.9v39.6"/>
		<path class="st7" d="M171.9,358.5h-39.6"/>
		<path class="st7" d="M132.3,358.5v-39.6"/>
		<path class="st7" d="M186.3,306.3h39.6"/>
		<path class="st7" d="M225.9,306.3v39.6"/>
		<path class="st7" d="M225.9,345.9h-39.6"/>
		<path class="st7" d="M186.3,345.9v-39.6"/>
		<path class="st7" d="M240.3,299.1h39.6"/>
		<path class="st7" d="M279.9,299.1v39.6"/>
		<path class="st7" d="M279.9,338.7h-39.6"/>
		<path class="st7" d="M240.3,338.7v-39.6"/>
		<path class="st7" d="M71.1,102.9h39.6"/>
		<path class="st7" d="M110.7,102.9v39.6"/>
		<path class="st7" d="M110.7,142.5H71.1"/>
		<path class="st7" d="M71.1,142.5v-39.6"/>
		<path class="st7" d="M71.1,156.9h39.6"/>
		<path class="st7" d="M110.7,156.9v39.6"/>
		<path class="st7" d="M110.7,196.5H71.1"/>
		<path class="st7" d="M71.1,196.5v-39.6"/>
		<path class="st7" d="M71.1,210.9h39.6"/>
		<path class="st7" d="M110.7,210.9v39.6"/>
		<path class="st7" d="M110.7,250.5H71.1"/>
		<path class="st7" d="M71.1,250.5v-39.6"/>
		<path class="st7" d="M71.1,264.9h39.6"/>
		<path class="st7" d="M110.7,264.9v39.6"/>
		<path class="st7" d="M110.7,304.5H71.1"/>
		<path class="st7" d="M71.1,304.5v-39.6"/>
		<path class="st7" d="M318.1,310.8l38.3,10.2"/>
		<path class="st7" d="M356.3,321.1L346,359.4"/>
		<path class="st7" d="M346.1,359.3L307.9,349"/>
		<path class="st7" d="M307.8,349.1l10.2-38.2"/>
		<path class="st7" d="M472.4,295.4l34.3,19.8"/>
		<path class="st7" d="M506.7,315.2l-19.8,34.3"/>
		<path class="st7" d="M486.9,349.5l-34.3-19.8"/>
		<path class="st7" d="M452.6,329.7l19.8-34.3"/>
		<path class="st7" d="M425.7,347.6l-19.8,34.3"/>
		<path class="st7" d="M405.9,381.9l-34.3-19.8"/>
		<path class="st7" d="M371.6,362.1l19.8-34.3"/>
		<path class="st7" d="M391.4,327.8l34.3,19.8"/>
		<path class="st7" d="M472.5,374.6l-19.8,34.3"/>
		<path class="st7" d="M452.7,408.9l-34.3-19.8"/>
		<path class="st7" d="M418.4,389.1l19.8-34.3"/>
		<path class="st7" d="M438.2,354.8l34.3,19.8"/>
		<path class="st7" d="M441.9,191.1v39.6"/>
		<path class="st7" d="M441.9,230.7h-39.6"/>
		<path class="st7" d="M402.3,230.7v-39.6"/>
		<path class="st7" d="M402.3,191.1h39.6"/>
	</g>
	<g class="st2">
		<g>
			<g>
				<rect x="91.7764" y="369.0615" class="st8" width="8.0947" height="2.834"/>
			</g>
			<g>
				<rect x="91.7764" y="379.8545" class="st8" width="8.0947" height="2.834"/>
			</g>
			<g>
				<rect x="91.7764" y="374.458" class="st8" width="8.0947" height="2.834"/>
			</g>
		</g>
		<g>
			<g>
				<rect x="113.3628" y="369.0615" class="st8" width="8.0947" height="2.834"/>
			</g>
			<g>
				<rect x="113.3628" y="379.8545" class="st8" width="8.0947" height="2.834"/>
			</g>
			<g>
				<rect x="113.3628" y="374.458" class="st8" width="8.0947" height="2.834"/>
			</g>
		</g>
		<g>
			<polygon class="st8" points="130.9233,382.3691 128.2031,375.1143 125.4829,382.3691 122.8286,381.373 128.2031,367.042 
				133.5776,381.373 			"/>
		</g>
		<g>
			<polygon class="st8" points="112.082,385.6738 103.9868,374.8799 103.9868,381.4219 101.1519,381.4219 101.1519,366.376 
				109.2471,377.1699 109.2471,370.6279 112.082,370.6279 			"/>
		</g>
		<g>
			<polygon class="st8" points="144.4614,385.6738 136.3667,374.8799 136.3667,381.4219 133.5317,381.4219 133.5317,366.376 
				141.6265,377.1699 141.6265,370.6279 144.4614,370.6279 			"/>
		</g>
		<g>
			<rect x="85.0308" y="374.458" class="st8" width="4.0474" height="2.834"/>
		</g>
		<g>
			<path class="st8" d="M83.6968,382.6885c-3.7573,0-6.8145-3.0566-6.8145-6.8135s3.0571-6.8135,6.8145-6.8135
				c1.6689,0,3.27,0.6055,4.5088,1.7061l-1.8828,2.1191c-0.7192-0.6387-1.6519-0.9912-2.626-0.9912
				c-2.1943,0-3.9795,1.7852-3.9795,3.9795s1.7852,3.9795,3.9795,3.9795s3.979-1.7852,3.979-3.9795h2.835
				C90.5107,379.6318,87.4541,382.6885,83.6968,382.6885z"/>
		</g>
		<g>
			<path class="st9" d="M85.0307,371.8276L85.0307,371.8276L85.0307,371.8276z"/>
		</g>
		<g>
			<rect x="89.0782" y="374.4375" class="st10" width="1.4525" height="1.4525"/>
		</g>
	</g>
	<circle class="st5" cx="166.3" cy="85.4" r="2.126"/>
</g>
</svg>
