<?xml version="1.0" encoding="utf-8"?>
<!-- Generator: Adobe Illustrator 22.0.1, SVG Export Plug-In . SVG Version: 6.00 Build 0)  -->
<svg version="1.1" xmlns="http://www.w3.org/2000/svg" xmlns:xlink="http://www.w3.org/1999/xlink" x="0px" y="0px" width="573.5px"
	 height="487.4px" viewBox="0 0 573.5 487.4" style="enable-background:new 0 0 573.5 487.4;" xml:space="preserve">
<style type="text/css">
	.st0{fill:none;stroke:#000000;stroke-width:0.2835;stroke-miterlimit:10;}
	.st1{display:none;}
	.st2{display:inline;}
	.st3{fill:none;stroke:#FF0000;stroke-width:0.2835;stroke-miterlimit:10;}
	.st4{display:inline;fill:none;stroke:#FF0000;stroke-width:0.2835;stroke-miterlimit:10;}
	.st5{display:inline;fill:none;stroke:#ED2024;stroke-width:0.2835;stroke-miterlimit:10;}
	.st6{display:inline;fill:none;stroke:#000000;stroke-width:0.2835;stroke-miterlimit:10;}
	.st7{fill:none;stroke:#ED2024;stroke-width:0.2835;stroke-miterlimit:10;}
	.st8{fill:#010101;}
	.st9{fill:none;}
</style>
<g id="Layer_1">
	<title>SVG Picture created as redox_rev2-brd.svg date 2018/05/19 09:41:39</title>
	<desc>Picture generated by PCBNEW</desc>
	<g transform="translate(0 0) scale(1 1)">
	</g>
	<circle class="st0" cx="172.9732" cy="382.7079" r="4.6772"/>
	<g>
		<circle class="st0" cx="231.7535" cy="54.8693" r="4.6772"/>
		<circle class="st0" cx="53.6247" cy="65.6247" r="4.6772"/>
		<circle class="st0" cx="39.8694" cy="306.375" r="4.6772"/>
		<path class="st0" d="M243.0921,66.208"/>
		<path class="st0" d="M243.0921,43.5308H71.2998c-7.5112,0-14.6167,2.9692-20.0088,8.3604L36.8906,66.2915
			c-5.3906,5.3916-8.3599,12.4971-8.3599,20.0083v225.5c0,10.3242,5.4121,17.1602,11.2612,23.0098l0.7988,0.7988
			c0.5503,0.5498,1.1646,1.1641,1.417,1.4658c0.0986,0.4668,0.2114,1.5938,0.251,1.9902c0.5669,5.6709,0.3677,11.6572,0.1748,17.458
			l-0.0259,0.8174c-0.0908,2.8906-0.1772,5.6201-0.1772,8.3604c0,15.6426,12.7266,28.3691,28.3696,28.3691h88.2v-22.6779
			c-31.2267,0.0006-88.2,0.0012-88.2,0.0012c-3.1387,0-5.6924-2.5537-5.6924-5.6924c0-2.3613,0.0796-4.8955,0.1636-7.5771
			l0.0283-0.8828c0.2061-6.2012,0.4409-13.2617-0.2759-20.4316c-0.1641-1.6426-0.334-3.0273-0.6284-4.4209
			c-0.7671-3.6318-2.4136-7.0186-4.7949-9.8652c-0.8408-1.0049-1.6841-1.8604-2.7832-2.958l-0.79-0.79
			c-4.6191-4.6201-4.6191-5.9258-4.6191-6.9746v-225.5c0-1.4961,0.5781-2.8335,1.7192-3.9741l8.6991-8.6994l5.6999-5.7001
			c1.1401-1.1396,2.4775-1.7183,3.9736-1.7183h171.7923C243.0921,66.2079,243.0921,43.5308,243.0921,43.5308z"/>
	</g>
	<g>
		<circle class="st0" cx="452.3318" cy="65.7662" r="4.6772"/>
		<circle class="st0" cx="451.4446" cy="447.0904" r="4.6772"/>
		<circle class="st0" cx="533.5043" cy="310.3865" r="4.6772"/>
		<path class="st0" d="M437.9213,67.4303c0,0,0-23.6922,0-23.6922c6.2287,0.7599,12.0225,3.5883,16.5875,8.153l14.4004,14.3999
			c5.3906,5.3916,8.3594,12.4976,8.3594,20.0088v135.1001c0,37.6792,6.6016,41.1753,34.3848,55.8901
			c0.2031,0.1074,0.3994,0.2266,0.5869,0.3584c5.6309,2.9756,11.6943,6.2148,18.4951,10.1426
			c6.6689,3.9521,11.3545,10.0723,13.2471,17.2666c1.998,7.3691,0.9678,15.0352-2.9121,21.5449l-67.958,117.9287
			c-4.8574,8.4668-13.9668,13.8877-23.7686,14.1367l-0.5762,0.0049c-8.0625,0-13.7539-3.1631-14.6318-3.6807l-114.0703-65.7363
			c-21.1289-7.7295-43.2329-11.4873-67.5654-11.4873c-4.1582,0-8.4912,0.1025-12.5298,0.2949
			c-2.8877,0.1025-6.2568,0.2051-9.8701,0.2051l-0.9819,0.002c-9.498,0.0938-20.2598,0.2012-26.5576,2.9844
			c-2.4746,1.1729-4.7217,3.2949-6.0674,4.5664c-3.5571,3.4531-8.4976,8.248-17.8931,8.248h-19.8v-22.6779
			c11.7816-0.0002,19.8981-0.0005,19.907-0.0008c0.4966-0.3896,1.3447-1.2139,1.9907-1.8408
			c0.0732-0.0713,0.147-0.1416,0.2212-0.2119c2.0137-1.9023,6.2041-5.8613,11.9292-8.5752c0.1812-0.0859,0.3628-0.1689,0.5459-0.25
			c10.5728-4.6719,23.8159-4.8027,35.5005-4.918c0.0591-0.001,1.2056-0.0029,1.2056-0.0029c3.1997,0,6.3003-0.0938,8.9263-0.1865
			c4.3647-0.2051,9.0205-0.3135,13.4736-0.3135c27.0386,0,51.6875,4.209,75.3564,12.8672c1.2227,0.4473,2.4043,0.999,3.5322,1.6484
			l113.9785,65.6836c0.2949,0.1338,1.6201,0.6904,3.334,0.7041l0.1807-0.001c1.8408-0.0889,3.6621-1.1826,4.582-2.7852
			c0,0,68.0703-118.1211,68.127-118.2168c0.7246-1.2158,0.8945-2.5625,0.5049-4c-0.0156-0.0557-0.0293-0.1104-0.0439-0.165
			c-0.3701-1.4072-1.3115-2.5771-2.7979-3.4795c-6.5381-3.7725-12.5146-6.957-17.6094-9.6494
			c-0.415-0.2197-0.8232-0.4521-1.2236-0.6963c-33.9365-18.0254-45.8291-28.7588-45.8291-75.6021V86.2998
			c0-1.4971-0.5791-2.8345-1.7178-3.9736l-14.3994-14.3989C438.295,67.7477,438.1105,67.582,437.9213,67.4303z"/>
	</g>
	<g>
		<circle class="st0" cx="288.4464" cy="54.8693" r="4.6772"/>
		<circle class="st0" cx="388.3249" cy="54.8693" r="4.6772"/>
		<path class="st0" d="M399.6635,43.5308"/>
		<polyline class="st0" points="277.1079,66.208 277.1079,43.5308 399.6635,43.5308 		"/>
		<path class="st0" d="M399.6635,43.5308"/>
		<rect x="277.1079" y="43.5308" class="st0" width="132.4772" height="22.6772"/>
	</g>
</g>
<g id="PCB" class="st1">
	<g class="st2">
		<g>
			<circle class="st3" cx="123.3" cy="299.1" r="4.8"/>
			<circle class="st3" cx="436.5" cy="342.6" r="4.8"/>
			<circle class="st3" cx="387.9" cy="81.3" r="4.8"/>
			<circle class="st3" cx="74.7" cy="86.7" r="4.8"/>
		</g>
		<path class="st3" d="M70.7,325.3v40.3h108l12.2-12.2h41.8l7.2-7.2h28.8l62.3,16.6l117.4,67.7h0.4l68-118.1l-67.7-38.9V115.1V86.3
			l-14.4-14.4H71.4L57,86.3v9.4v216L70.7,325.3z"/>
	</g>
	<rect x="245.9268" y="43.5308" class="st4" width="28.3465" height="79.1692"/>
	<rect x="402.4981" y="39.4375" class="st4" width="22.6772" height="83.2625"/>
	<g class="st2">
		<g>
			<line class="st3" x1="240.3" y1="122.7" x2="279.9" y2="83.1"/>
			<line class="st3" x1="240.3" y1="83.1" x2="279.9" y2="122.7"/>
		</g>
	</g>
	<line class="st4" x1="61.6338" y1="73.6338" x2="53.6162" y2="65.6162"/>
	<rect x="39.8694" y="292.2018" class="st4" width="11.3386" height="14.1732"/>
	<rect x="158.8" y="371.3913" class="st4" width="14.1732" height="11.3166"/>
	<polyline class="st5" points="449.6592,435.8903 451.4446,447.0904 453.23,458.2904 	"/>
	<polyline class="st5" points="522.2495,311.7431 527.8769,311.0648 533.5043,310.3865 539.1317,309.7082 544.759,309.03 	"/>
	<rect x="231.7535" y="43.5308" class="st4" width="14.1732" height="11.3386"/>
	<rect x="274.2732" y="43.5308" class="st4" width="14.1732" height="11.3386"/>
	<rect x="388.3249" y="43.5308" class="st4" width="14.1732" height="11.3386"/>
	<line class="st6" x1="451.074" y1="66.8446" x2="451.0745" y2="66.8449"/>
	<line class="st4" x1="444.3228" y1="73.7752" x2="452.3404" y2="65.7577"/>
	<path class="st5" d="M444.3228,73.7752"/>
	<path class="st5" d="M522.2495,311.7431"/>
	<path class="st5" d="M522.2495,311.7431"/>
	<path class="st5" d="M522.2495,311.7431"/>
	<g class="st2">
		<path class="st7" d="M132.3,102.9h39.6"/>
		<path class="st7" d="M171.9,102.9v39.6"/>
		<path class="st7" d="M171.9,142.5h-39.6"/>
		<path class="st7" d="M132.3,142.5v-39.6"/>
		<path class="st7" d="M186.3,90.3h39.6"/>
		<path class="st7" d="M225.9,90.3v39.6"/>
		<path class="st7" d="M225.9,129.9h-39.6"/>
		<path class="st7" d="M186.3,129.9V90.3"/>
		<path class="st7" d="M240.3,83.1h39.6"/>
		<path class="st7" d="M279.9,83.1v39.6"/>
		<path class="st7" d="M279.9,122.7h-39.6"/>
		<path class="st7" d="M240.3,122.7V83.1"/>
		<path class="st7" d="M294.3,90.3h39.6"/>
		<path class="st7" d="M333.9,90.3v39.6"/>
		<path class="st7" d="M333.9,129.9h-39.6"/>
		<path class="st7" d="M294.3,129.9V90.3"/>
		<path class="st7" d="M348.3,95.7h39.6"/>
		<path class="st7" d="M387.9,95.7v39.6"/>
		<path class="st7" d="M387.9,135.3h-39.6"/>
		<path class="st7" d="M348.3,135.3V95.7"/>
		<path class="st7" d="M402.3,122.7h39.6"/>
		<path class="st7" d="M441.9,122.7v39.6"/>
		<path class="st7" d="M441.9,162.3h-39.6"/>
		<path class="st7" d="M402.3,162.3v-39.6"/>
		<path class="st7" d="M132.3,156.9h39.6"/>
		<path class="st7" d="M171.9,156.9v39.6"/>
		<path class="st7" d="M171.9,196.5h-39.6"/>
		<path class="st7" d="M132.3,196.5v-39.6"/>
		<path class="st7" d="M186.3,144.3h39.6"/>
		<path class="st7" d="M225.9,144.3v39.6"/>
		<path class="st7" d="M225.9,183.9h-39.6"/>
		<path class="st7" d="M186.3,183.9v-39.6"/>
		<path class="st7" d="M240.3,137.1h39.6"/>
		<path class="st7" d="M279.9,137.1v39.6"/>
		<path class="st7" d="M279.9,176.7h-39.6"/>
		<path class="st7" d="M240.3,176.7v-39.6"/>
		<path class="st7" d="M294.3,144.3h39.6"/>
		<path class="st7" d="M333.9,144.3v39.6"/>
		<path class="st7" d="M333.9,183.9h-39.6"/>
		<path class="st7" d="M294.3,183.9v-39.6"/>
		<path class="st7" d="M348.3,149.7h39.6"/>
		<path class="st7" d="M387.9,149.7v39.6"/>
		<path class="st7" d="M387.9,189.3h-39.6"/>
		<path class="st7" d="M348.3,189.3v-39.6"/>
		<path class="st7" d="M132.3,210.9h39.6"/>
		<path class="st7" d="M171.9,210.9v39.6"/>
		<path class="st7" d="M171.9,250.5h-39.6"/>
		<path class="st7" d="M132.3,250.5v-39.6"/>
		<path class="st7" d="M186.3,198.3h39.6"/>
		<path class="st7" d="M225.9,198.3v39.6"/>
		<path class="st7" d="M225.9,237.9h-39.6"/>
		<path class="st7" d="M186.3,237.9v-39.6"/>
		<path class="st7" d="M240.3,191.1h39.6"/>
		<path class="st7" d="M279.9,191.1v39.6"/>
		<path class="st7" d="M279.9,230.7h-39.6"/>
		<path class="st7" d="M240.3,230.7v-39.6"/>
		<path class="st7" d="M294.3,198.3h39.6"/>
		<path class="st7" d="M333.9,198.3v39.6"/>
		<path class="st7" d="M333.9,237.9h-39.6"/>
		<path class="st7" d="M294.3,237.9v-39.6"/>
		<path class="st7" d="M348.3,203.7h39.6"/>
		<path class="st7" d="M387.9,203.7v39.6"/>
		<path class="st7" d="M387.9,243.3h-39.6"/>
		<path class="st7" d="M348.3,243.3v-39.6"/>
		<path class="st7" d="M425.6,268.4l34.3,19.8"/>
		<path class="st7" d="M459.9,288.2l-19.8,34.3"/>
		<path class="st7" d="M440.1,322.5l-34.3-19.8"/>
		<path class="st7" d="M405.8,302.7l19.8-34.3"/>
		<path class="st7" d="M132.3,264.9h39.6"/>
		<path class="st7" d="M171.9,264.9v39.6"/>
		<path class="st7" d="M171.9,304.5h-39.6"/>
		<path class="st7" d="M132.3,304.5v-39.6"/>
		<path class="st7" d="M186.3,252.3h39.6"/>
		<path class="st7" d="M225.9,252.3v39.6"/>
		<path class="st7" d="M225.9,291.9h-39.6"/>
		<path class="st7" d="M186.3,291.9v-39.6"/>
		<path class="st7" d="M240.3,245.1h39.6"/>
		<path class="st7" d="M279.9,245.1v39.6"/>
		<path class="st7" d="M279.9,284.7h-39.6"/>
		<path class="st7" d="M240.3,284.7v-39.6"/>
		<path class="st7" d="M294.3,252.3h39.6"/>
		<path class="st7" d="M333.9,252.3v39.6"/>
		<path class="st7" d="M333.9,291.9h-39.6"/>
		<path class="st7" d="M294.3,291.9v-39.6"/>
		<path class="st7" d="M348.3,257.7h39.6"/>
		<path class="st7" d="M387.9,257.7v39.6"/>
		<path class="st7" d="M387.9,297.3h-39.6"/>
		<path class="st7" d="M348.3,297.3v-39.6"/>
		<path class="st7" d="M78.3,318.9h39.6"/>
		<path class="st7" d="M117.9,318.9v39.6"/>
		<path class="st7" d="M117.9,358.5H78.3"/>
		<path class="st7" d="M78.3,358.5v-39.6"/>
		<path class="st7" d="M132.3,318.9h39.6"/>
		<path class="st7" d="M171.9,318.9v39.6"/>
		<path class="st7" d="M171.9,358.5h-39.6"/>
		<path class="st7" d="M132.3,358.5v-39.6"/>
		<path class="st7" d="M186.3,306.3h39.6"/>
		<path class="st7" d="M225.9,306.3v39.6"/>
		<path class="st7" d="M225.9,345.9h-39.6"/>
		<path class="st7" d="M186.3,345.9v-39.6"/>
		<path class="st7" d="M240.3,299.1h39.6"/>
		<path class="st7" d="M279.9,299.1v39.6"/>
		<path class="st7" d="M279.9,338.7h-39.6"/>
		<path class="st7" d="M240.3,338.7v-39.6"/>
		<path class="st7" d="M71.1,102.9h39.6"/>
		<path class="st7" d="M110.7,102.9v39.6"/>
		<path class="st7" d="M110.7,142.5H71.1"/>
		<path class="st7" d="M71.1,142.5v-39.6"/>
		<path class="st7" d="M71.1,156.9h39.6"/>
		<path class="st7" d="M110.7,156.9v39.6"/>
		<path class="st7" d="M110.7,196.5H71.1"/>
		<path class="st7" d="M71.1,196.5v-39.6"/>
		<path class="st7" d="M71.1,210.9h39.6"/>
		<path class="st7" d="M110.7,210.9v39.6"/>
		<path class="st7" d="M110.7,250.5H71.1"/>
		<path class="st7" d="M71.1,250.5v-39.6"/>
		<path class="st7" d="M71.1,264.9h39.6"/>
		<path class="st7" d="M110.7,264.9v39.6"/>
		<path class="st7" d="M110.7,304.5H71.1"/>
		<path class="st7" d="M71.1,304.5v-39.6"/>
		<path class="st7" d="M318.1,310.8l38.3,10.2"/>
		<path class="st7" d="M356.3,321.1L346,359.4"/>
		<path class="st7" d="M346.1,359.3L307.9,349"/>
		<path class="st7" d="M307.8,349.1l10.2-38.2"/>
		<path class="st7" d="M472.4,295.4l34.3,19.8"/>
		<path class="st7" d="M506.7,315.2l-19.8,34.3"/>
		<path class="st7" d="M486.9,349.5l-34.3-19.8"/>
		<path class="st7" d="M452.6,329.7l19.8-34.3"/>
		<path class="st7" d="M425.7,347.6l-19.8,34.3"/>
		<path class="st7" d="M405.9,381.9l-34.3-19.8"/>
		<path class="st7" d="M371.6,362.1l19.8-34.3"/>
		<path class="st7" d="M391.4,327.8l34.3,19.8"/>
		<path class="st7" d="M472.5,374.6l-19.8,34.3"/>
		<path class="st7" d="M452.7,408.9l-34.3-19.8"/>
		<path class="st7" d="M418.4,389.1l19.8-34.3"/>
		<path class="st7" d="M438.2,354.8l34.3,19.8"/>
		<path class="st7" d="M441.9,191.1v39.6"/>
		<path class="st7" d="M441.9,230.7h-39.6"/>
		<path class="st7" d="M402.3,230.7v-39.6"/>
		<path class="st7" d="M402.3,191.1h39.6"/>
	</g>
	<g class="st2">
		<g>
			<g>
				<rect x="91.7764" y="369.0615" class="st8" width="8.0947" height="2.834"/>
			</g>
			<g>
				<rect x="91.7764" y="379.8545" class="st8" width="8.0947" height="2.834"/>
			</g>
			<g>
				<rect x="91.7764" y="374.458" class="st8" width="8.0947" height="2.834"/>
			</g>
		</g>
		<g>
			<g>
				<rect x="113.3628" y="369.0615" class="st8" width="8.0947" height="2.834"/>
			</g>
			<g>
				<rect x="113.3628" y="379.8545" class="st8" width="8.0947" height="2.834"/>
			</g>
			<g>
				<rect x="113.3628" y="374.458" class="st8" width="8.0947" height="2.834"/>
			</g>
		</g>
		<g>
			<polygon class="st8" points="130.9233,382.3691 128.2031,375.1143 125.4829,382.3691 122.8286,381.373 128.2031,367.042 
				133.5776,381.373 			"/>
		</g>
		<g>
			<polygon class="st8" points="112.082,385.6738 103.9868,374.8799 103.9868,381.4219 101.1519,381.4219 101.1519,366.376 
				109.2471,377.1699 109.2471,370.6279 112.082,370.6279 			"/>
		</g>
		<g>
			<polygon class="st8" points="144.4614,385.6738 136.3667,374.8799 136.3667,381.4219 133.5317,381.4219 133.5317,366.376 
				141.6265,377.1699 141.6265,370.6279 144.4614,370.6279 			"/>
		</g>
		<g>
			<rect x="85.0308" y="374.458" class="st8" width="4.0474" height="2.834"/>
		</g>
		<g>
			<path class="st8" d="M83.6968,382.6885c-3.7573,0-6.8145-3.0566-6.8145-6.8135s3.0571-6.8135,6.8145-6.8135
				c1.6689,0,3.27,0.6055,4.5088,1.7061l-1.8828,2.1191c-0.7192-0.6387-1.6519-0.9912-2.626-0.9912
				c-2.1943,0-3.9795,1.7852-3.9795,3.9795s1.7852,3.9795,3.9795,3.9795s3.979-1.7852,3.979-3.9795h2.835
				C90.5107,379.6318,87.4541,382.6885,83.6968,382.6885z"/>
		</g>
		<g>
			<path class="st9" d="M85.0307,371.8276L85.0307,371.8276L85.0307,371.8276z"/>
		</g>
		<g>
			<rect x="89.0782" y="374.4375" width="1.4525" height="1.4525"/>
		</g>
	</g>
	<circle class="st5" cx="166.3" cy="85.4" r="2.126"/>
	<g class="st2">
		<circle class="st7" cx="53.6247" cy="65.6247" r="2.126"/>
		<circle class="st7" cx="39.8694" cy="306.375" r="2.126"/>
		<circle class="st7" cx="172.9732" cy="382.7079" r="2.126"/>
		<circle class="st7" cx="451.4446" cy="447.0904" r="2.126"/>
		<circle class="st7" cx="533.5043" cy="310.3865" r="2.126"/>
		<circle class="st7" cx="231.7535" cy="54.8693" r="2.126"/>
		<circle class="st7" cx="288.4464" cy="54.8693" r="2.126"/>
		<circle class="st7" cx="388.3249" cy="54.8693" r="2.126"/>
		<circle class="st7" cx="452.3318" cy="65.7662" r="2.126"/>
	</g>
</g>
</svg>
